<?xml version="1.0" encoding="utf-8"?>
<!-- Generator: Adobe Illustrator 25.4.1, SVG Export Plug-In . SVG Version: 6.00 Build 0)  -->
<svg version="1.1" id="Layer_1" xmlns="http://www.w3.org/2000/svg" xmlns:xlink="http://www.w3.org/1999/xlink" x="0px" y="0px"
	 viewBox="0 0 635 330" style="enable-background:new 0 0 635 330;" xml:space="preserve">
<style type="text/css">
	.st0{opacity:0.1;fill:#FFFFFF;}
	.st1{opacity:0.42;fill:#FFFFFF;}
	.st2{opacity:0.2;fill:#FFFFFF;}
</style>
<g>
	<path class="st0" d="M176.5,311.1h-157c-9.4,0-17-7.6-17-16.9V35.9c0-9.3,7.6-16.9,17-16.9h157c9.4,0,17,7.6,17,16.9v258.3
		C193.5,303.5,185.9,311.1,176.5,311.1z"/>
	<path class="st0" d="M396.5,327h-157c-9.4,0-17-7.6-17-16.9V19.9c0-9.3,7.6-16.9,17-16.9h157c9.4,0,17,7.6,17,16.9v290.2
		C413.5,319.4,405.9,327,396.5,327z"/>
	<path class="st0" d="M615.5,312.1h-157c-9.4,0-17-7.6-17-16.9V36.8c0-9.3,7.6-16.9,17-16.9h157c9.4,0,17,7.6,17,16.9v258.3
		C632.5,304.5,624.9,312.1,615.5,312.1z"/>
	<ellipse class="st1" cx="51.7" cy="171.9" rx="6.2" ry="6.2"/>
	<path class="st2" d="M144.9,178.1l-74.3,0c-3.1,0-5.6-2.5-5.6-5.6v-1.1c0-3.1,2.5-5.6,5.6-5.6h74.3c3.1,0,5.6,2.5,5.6,5.6v1.1
		C150.5,175.6,148,178.1,144.9,178.1z"/>
	<ellipse class="st1" cx="51.9" cy="201.8" rx="6.2" ry="6.2"/>
	<path class="st2" d="M144.6,207.9H70.7c-3.1,0-5.6-2.5-5.6-5.6v-1.1c0-3.1,2.5-5.6,5.6-5.6h73.9c3.1,0,5.6,2.5,5.6,5.6v1.1
		C150.3,205.4,147.8,207.9,144.6,207.9z"/>
	<circle class="st1" cx="98" cy="77.6" r="23"/>
	<path class="st1" d="M124.9,129.5H71.1c-3.1,0-5.6-2.5-5.6-5.6v-1.1c0-3.1,2.5-5.6,5.6-5.6h53.7c3.1,0,5.6,2.5,5.6,5.6v1.1
		C130.5,127,128,129.5,124.9,129.5z"/>
	<path class="st1" d="M123.5,273.7H73.3c-8.2,0-14.9-6.7-14.9-14.9v0c0-8.2,6.7-14.9,14.9-14.9h50.2c8.2,0,14.9,6.7,14.9,14.9v0
		C138.4,267,131.8,273.7,123.5,273.7z"/>
	<ellipse class="st1" cx="271.2" cy="171.7" rx="6.2" ry="6.2"/>
	<path class="st2" d="M364.4,177.9H290c-3.1,0-5.6-2.5-5.6-5.6v-1.1c0-3.1,2.5-5.6,5.6-5.6h74.3c3.1,0,5.6,2.5,5.6,5.6v1.1
		C370,175.4,367.5,177.9,364.4,177.9z"/>
	<ellipse class="st1" cx="271.2" cy="201.6" rx="6.2" ry="6.2"/>
	<path class="st2" d="M364.1,207.8h-73.9c-3.1,0-5.6-2.5-5.6-5.6v-1.1c0-3.1,2.5-5.6,5.6-5.6h73.9c3.1,0,5.6,2.5,5.6,5.6v1.1
		C369.8,205.3,367.3,207.8,364.1,207.8z"/>
	<circle class="st1" cx="318" cy="77.2" r="23"/>
	<path class="st1" d="M344.9,129.2l-53.7,0c-3.1,0-5.6-2.5-5.6-5.6v-1.1c0-3.1,2.5-5.6,5.6-5.6h53.7c3.1,0,5.6,2.5,5.6,5.6v1.1
		C350.5,126.7,348,129.2,344.9,129.2z"/>
	<path class="st1" d="M343.5,273.7h-50.1c-8.2,0-14.9-6.7-14.9-14.9v0c0-8.2,6.7-14.9,14.9-14.9h50.1c8.2,0,14.9,6.7,14.9,14.9v0
		C358.4,267,351.7,273.7,343.5,273.7z"/>
	<ellipse class="st1" cx="490.2" cy="172.7" rx="6.2" ry="6.2"/>
	<path class="st2" d="M583.4,178.9H509c-3.1,0-5.6-2.5-5.6-5.6v-1.1c0-3.1,2.5-5.6,5.6-5.6h74.3c3.1,0,5.6,2.5,5.6,5.6v1.1
		C589,176.4,586.5,178.9,583.4,178.9z"/>
	<ellipse class="st1" cx="490.4" cy="202.6" rx="6.2" ry="6.2"/>
	<path class="st2" d="M583.1,208.8h-73.9c-3.1,0-5.6-2.5-5.6-5.6V202c0-3.1,2.5-5.6,5.6-5.6h73.9c3.1,0,5.6,2.5,5.6,5.6v1.1
		C588.8,206.3,586.3,208.8,583.1,208.8z"/>
	<circle class="st1" cx="537" cy="78.2" r="23"/>
	<path class="st1" d="M563.9,130.2h-53.7c-3.1,0-5.6-2.5-5.6-5.6v-1.1c0-3.1,2.5-5.6,5.6-5.6h53.7c3.1,0,5.6,2.5,5.6,5.6v1.1
		C569.5,127.7,567,130.2,563.9,130.2z"/>
	<path class="st1" d="M562.5,274.7h-50.1c-8.2,0-14.9-6.7-14.9-14.9v0c0-8.2,6.7-14.9,14.9-14.9h50.1c8.2,0,14.9,6.7,14.9,14.9v0
		C577.4,268,570.7,274.7,562.5,274.7z"/>
</g>
</svg>
