<?xml version="1.0" encoding="utf-8"?>
<!-- Generator: Adobe Illustrator 25.4.1, SVG Export Plug-In . SVG Version: 6.00 Build 0)  -->
<svg version="1.1" id="Layer_1" xmlns="http://www.w3.org/2000/svg" xmlns:xlink="http://www.w3.org/1999/xlink" x="0px" y="0px"
	 viewBox="0 0 635 330" style="enable-background:new 0 0 635 330;" xml:space="preserve">
<style type="text/css">
	.st0{opacity:0.42;fill:#FFFFFF;}
	.st1{opacity:0.2;fill:#FFFFFF;}
</style>
<g>
	<circle class="st0" cx="626.3" cy="265.5" r="6.2"/>
	<circle class="st0" cx="608" cy="265.5" r="6.2"/>
	<circle class="st0" cx="589.6" cy="265.5" r="6.2"/>
	<path class="st1" d="M152.4,271.7H8.1c-3.1,0-5.6-2.5-5.6-5.6v-1.1c0-3.1,2.5-5.6,5.6-5.6h144.2c3.1,0,5.6,2.5,5.6,5.6v1.1
		C158,269.1,155.5,271.7,152.4,271.7z"/>
	<path class="st0" d="M87.5,209.9h-70c-8.3,0-15-6.7-15-15v0c0-8.3,6.7-15,15-15h70c8.3,0,15,6.7,15,15v0
		C102.5,203.1,95.8,209.9,87.5,209.9z"/>
	<path class="st0" d="M71.8,70.8H8.1c-3.1,0-5.6-2.5-5.6-5.6V64c0-3.1,2.5-5.6,5.6-5.6h63.7c3.1,0,5.6,2.5,5.6,5.6v1.1
		C77.5,68.2,75,70.8,71.8,70.8z"/>
	<path class="st1" d="M176.3,105.7H8.1c-3.1,0-5.6-2.5-5.6-5.6v-1.1c0-3.1,2.5-5.6,5.6-5.6h168.2c3.1,0,5.6,2.5,5.6,5.6v1.1
		C181.9,103.1,179.4,105.7,176.3,105.7z"/>
	<path class="st1" d="M176.3,131.7H8.1c-3.1,0-5.6-2.5-5.6-5.6v-1.1c0-3.1,2.5-5.6,5.6-5.6h168.2c3.1,0,5.6,2.5,5.6,5.6v1.1
		C181.9,129.1,179.4,131.7,176.3,131.7z"/>
	<path class="st1" d="M140.7,157.7H8.1c-3.1,0-5.6-2.5-5.6-5.6v-1.1c0-3.1,2.5-5.6,5.6-5.6h132.6c3.1,0,5.6,2.5,5.6,5.6v1.1
		C146.3,155.1,143.8,157.7,140.7,157.7z"/>
	<path class="st0" d="M353.4,70.8h-63.7c-3.1,0-5.6-2.5-5.6-5.6V64c0-3.1,2.5-5.6,5.6-5.6h63.7c3.1,0,5.6,2.5,5.6,5.6v1.1
		C359,68.2,356.5,70.8,353.4,70.8z"/>
	<path class="st1" d="M376.8,105.7h-87.2c-3.1,0-5.6-2.5-5.6-5.6v-1.1c0-3.1,2.5-5.6,5.6-5.6h87.2c3.1,0,5.6,2.5,5.6,5.6v1.1
		C382.5,103.1,380,105.7,376.8,105.7z"/>
	<path class="st1" d="M376.4,131.7h-86.7c-3.1,0-5.6-2.5-5.6-5.6v-1.1c0-3.1,2.5-5.6,5.6-5.6h86.7c3.1,0,5.6,2.5,5.6,5.6v1.1
		C382,129.1,379.5,131.7,376.4,131.7z"/>
	<path class="st1" d="M353.4,157.7h-63.7c-3.1,0-5.6-2.5-5.6-5.6v-1.1c0-3.1,2.5-5.6,5.6-5.6h63.7c3.1,0,5.6,2.5,5.6,5.6v1.1
		C359,155.1,356.5,157.7,353.4,157.7z"/>
	<path class="st0" d="M478.4,70.8h-63.7c-3.1,0-5.6-2.5-5.6-5.6V64c0-3.1,2.5-5.6,5.6-5.6h63.7c3.1,0,5.6,2.5,5.6,5.6v1.1
		C484,68.2,481.5,70.8,478.4,70.8z"/>
	<path class="st1" d="M501.8,105.7h-87.2c-3.1,0-5.6-2.5-5.6-5.6v-1.1c0-3.1,2.5-5.6,5.6-5.6h87.2c3.1,0,5.6,2.5,5.6,5.6v1.1
		C507.5,103.1,505,105.7,501.8,105.7z"/>
	<path class="st1" d="M501.4,131.7h-86.7c-3.1,0-5.6-2.5-5.6-5.6v-1.1c0-3.1,2.5-5.6,5.6-5.6h86.7c3.1,0,5.6,2.5,5.6,5.6v1.1
		C507,129.1,504.5,131.7,501.4,131.7z"/>
	<path class="st1" d="M478.4,157.7h-63.7c-3.1,0-5.6-2.5-5.6-5.6v-1.1c0-3.1,2.5-5.6,5.6-5.6h63.7c3.1,0,5.6,2.5,5.6,5.6v1.1
		C484,155.1,481.5,157.7,478.4,157.7z"/>
	<path class="st1" d="M603.4,157.7h-63.7c-3.1,0-5.6-2.5-5.6-5.6v-1.1c0-3.1,2.5-5.6,5.6-5.6h63.7c3.1,0,5.6,2.5,5.6,5.6v1.1
		C609,155.1,606.5,157.7,603.4,157.7z"/>
	<path class="st0" d="M603.4,70.8h-63.7c-3.1,0-5.6-2.5-5.6-5.6V64c0-3.1,2.5-5.6,5.6-5.6h63.7c3.1,0,5.6,2.5,5.6,5.6v1.1
		C609,68.2,606.5,70.8,603.4,70.8z"/>
	<path class="st1" d="M626.8,105.7h-87.2c-3.1,0-5.6-2.5-5.6-5.6v-1.1c0-3.1,2.5-5.6,5.6-5.6h87.2c3.1,0,5.6,2.5,5.6,5.6v1.1
		C632.5,103.1,630,105.7,626.8,105.7z"/>
	<path class="st1" d="M626.4,131.7h-86.7c-3.1,0-5.6-2.5-5.6-5.6v-1.1c0-3.1,2.5-5.6,5.6-5.6h86.7c3.1,0,5.6,2.5,5.6,5.6v1.1
		C632,129.1,629.5,131.7,626.4,131.7z"/>
</g>
</svg>
