<?xml version="1.0" encoding="utf-8"?>
<!-- Generator: Adobe Illustrator 25.4.1, SVG Export Plug-In . SVG Version: 6.00 Build 0)  -->
<svg version="1.1" id="Layer_1" xmlns="http://www.w3.org/2000/svg" xmlns:xlink="http://www.w3.org/1999/xlink" x="0px" y="0px"
	 viewBox="0 0 635 330" style="enable-background:new 0 0 635 330;" xml:space="preserve">
<style type="text/css">
	.st0{opacity:0.42;fill:#FFFFFF;}
	.st1{opacity:0.2;fill:#FFFFFF;}
</style>
<g>
	<circle class="st0" cx="74.6" cy="135.8" r="23"/>
	<path class="st0" d="M106.5,189.6H42.8c-3.1,0-5.6-2.5-5.6-5.6v-1.1c0-3.1,2.5-5.6,5.6-5.6h63.7c3.1,0,5.6,2.5,5.6,5.6v1.1
		C112.1,187.1,109.6,189.6,106.5,189.6z"/>
	<path class="st1" d="M118.9,217.2H30.1c-3.1,0-5.6-2.5-5.6-5.6v-1.1c0-3.1,2.5-5.6,5.6-5.6h88.7c3.1,0,5.6,2.5,5.6,5.6v1.1
		C124.5,214.7,122,217.2,118.9,217.2z"/>
	<circle class="st0" cx="236.6" cy="135.8" r="23"/>
	<path class="st0" d="M268.5,189.6h-63.7c-3.1,0-5.6-2.5-5.6-5.6v-1.1c0-3.1,2.5-5.6,5.6-5.6h63.7c3.1,0,5.6,2.5,5.6,5.6v1.1
		C274.1,187.1,271.6,189.6,268.5,189.6z"/>
	<path class="st1" d="M280.9,217.2h-88.7c-3.1,0-5.6-2.5-5.6-5.6v-1.1c0-3.1,2.5-5.6,5.6-5.6h88.7c3.1,0,5.6,2.5,5.6,5.6v1.1
		C286.5,214.7,284,217.2,280.9,217.2z"/>
	<circle class="st0" cx="398.6" cy="135.8" r="23"/>
	<path class="st0" d="M430.5,189.6h-63.7c-3.1,0-5.6-2.5-5.6-5.6v-1.1c0-3.1,2.5-5.6,5.6-5.6h63.7c3.1,0,5.6,2.5,5.6,5.6v1.1
		C436.1,187.1,433.6,189.6,430.5,189.6z"/>
	<path class="st1" d="M442.9,217.2h-88.7c-3.1,0-5.6-2.5-5.6-5.6v-1.1c0-3.1,2.5-5.6,5.6-5.6h88.7c3.1,0,5.6,2.5,5.6,5.6v1.1
		C448.5,214.7,446,217.2,442.9,217.2z"/>
	<circle class="st0" cx="560.6" cy="135.8" r="23"/>
	<path class="st0" d="M592.5,189.6h-63.7c-3.1,0-5.6-2.5-5.6-5.6v-1.1c0-3.1,2.5-5.6,5.6-5.6h63.7c3.1,0,5.6,2.5,5.6,5.6v1.1
		C598.1,187.1,595.6,189.6,592.5,189.6z"/>
	<path class="st1" d="M604.9,217.2h-88.7c-3.1,0-5.6-2.5-5.6-5.6v-1.1c0-3.1,2.5-5.6,5.6-5.6h88.7c3.1,0,5.6,2.5,5.6,5.6v1.1
		C610.5,214.7,608,217.2,604.9,217.2z"/>
</g>
</svg>
