<?xml version="1.0" encoding="utf-8"?>
<!-- Generator: Adobe Illustrator 25.4.1, SVG Export Plug-In . SVG Version: 6.00 Build 0)  -->
<svg version="1.1" id="Layer_1" xmlns="http://www.w3.org/2000/svg" xmlns:xlink="http://www.w3.org/1999/xlink" x="0px" y="0px"
	 viewBox="0 0 635 330" style="enable-background:new 0 0 635 330;" xml:space="preserve">
<style type="text/css">
	.st0{opacity:0.1;fill:#FFFFFF;}
	.st1{opacity:0.42;fill:#FFFFFF;}
	.st2{opacity:0.2;fill:#FFFFFF;}
</style>
<g>
	<path class="st0" d="M370.1,70.8H14.9c-6.6,0-12-5.4-12-12v-17c0-6.6,5.4-12,12-12h355.2c6.6,0,12,5.4,12,12v17
		C382.1,65.4,376.7,70.8,370.1,70.8z"/>
	<path class="st0" d="M370.1,129.7H14.9c-6.6,0-12-5.4-12-12v-17c0-6.6,5.4-12,12-12h355.2c6.6,0,12,5.4,12,12v17
		C382.1,124.3,376.7,129.7,370.1,129.7z"/>
	<path class="st0" d="M370.1,251.7H14.9c-6.6,0-12-5.4-12-12v-80c0-6.6,5.4-12,12-12h355.2c6.6,0,12,5.4,12,12v80
		C382.1,246.3,376.7,251.7,370.1,251.7z"/>
	<ellipse class="st1" cx="461.8" cy="47.8" rx="16" ry="16"/>
	<ellipse class="st1" cx="461.8" cy="165.8" rx="16" ry="16"/>
	<path class="st1" d="M567.2,46.2h-68.4c-3.1,0-5.6-2.5-5.6-5.6v-1.1c0-3.1,2.5-5.6,5.6-5.6h68.4c3.1,0,5.6,2.5,5.6,5.6v1.1
		C572.8,43.7,570.3,46.2,567.2,46.2z"/>
	<path class="st2" d="M626.9,80.1h-128c-3.1,0-5.6-2.5-5.6-5.6v-1.1c0-3.1,2.5-5.6,5.6-5.6h128c3.1,0,5.6,2.5,5.6,5.6v1.1
		C632.5,77.6,630,80.1,626.9,80.1z"/>
	<path class="st2" d="M600.3,106.1H498.8c-3.1,0-5.6-2.5-5.6-5.6v-1.1c0-3.1,2.5-5.6,5.6-5.6h101.5c3.1,0,5.6,2.5,5.6,5.6v1.1
		C606,103.6,603.4,106.1,600.3,106.1z"/>
	<path class="st1" d="M567.2,164.2h-68.4c-3.1,0-5.6-2.5-5.6-5.6v-1.1c0-3.1,2.5-5.6,5.6-5.6h68.4c3.1,0,5.6,2.5,5.6,5.6v1.1
		C572.8,161.7,570.3,164.2,567.2,164.2z"/>
	<path class="st2" d="M626.9,198.1h-128c-3.1,0-5.6-2.5-5.6-5.6v-1.1c0-3.1,2.5-5.6,5.6-5.6h128c3.1,0,5.6,2.5,5.6,5.6v1.1
		C632.5,195.6,630,198.1,626.9,198.1z"/>
	<path class="st2" d="M600.3,224.1H498.8c-3.1,0-5.6-2.5-5.6-5.6v-1.1c0-3.1,2.5-5.6,5.6-5.6h101.5c3.1,0,5.6,2.5,5.6,5.6v1.1
		C606,221.6,603.4,224.1,600.3,224.1z"/>
	<path class="st1" d="M87.4,300.2H17.5c-8.3,0-15-6.7-15-15l0,0c0-8.3,6.7-15,15-15h69.9c8.3,0,15,6.7,15,15l0,0
		C102.4,293.5,95.7,300.2,87.4,300.2z"/>
</g>
</svg>
