<?xml version="1.0" encoding="utf-8"?>
<!-- Generator: Adobe Illustrator 25.4.1, SVG Export Plug-In . SVG Version: 6.00 Build 0)  -->
<svg version="1.1" id="Layer_1" xmlns="http://www.w3.org/2000/svg" xmlns:xlink="http://www.w3.org/1999/xlink" x="0px" y="0px"
	 viewBox="0 0 635 330" style="enable-background:new 0 0 635 330;" xml:space="preserve">
<style type="text/css">
	.st0{opacity:0.1;fill:#FFFFFF;}
	.st1{opacity:0.42;fill:#FFFFFF;}
	.st2{opacity:0.2;fill:#FFFFFF;}
</style>
<g>
	<path class="st0" d="M617.5,225.1h-600c-8.3,0-15-6.7-15-15v-25c0-8.3,6.7-15,15-15h600c8.3,0,15,6.7,15,15v25
		C632.5,218.4,625.8,225.1,617.5,225.1z"/>
	<circle class="st1" cx="605.9" cy="197.5" r="6.2"/>
	<circle class="st1" cx="587.6" cy="197.5" r="6.2"/>
	<circle class="st1" cx="569.2" cy="197.5" r="6.2"/>
	<path class="st1" d="M66.6,205.1H27.9c-3.1,0-5.6-2.5-5.6-5.6v-1.1c0-3.1,2.5-5.6,5.6-5.6h38.7c3.1,0,5.6,2.5,5.6,5.6v1.1
		C72.3,202.5,69.8,205.1,66.6,205.1z"/>
	<path class="st1" d="M129.3,205.1H90.6c-3.1,0-5.6-2.5-5.6-5.6v-1.1c0-3.1,2.5-5.6,5.6-5.6h38.7c3.1,0,5.6,2.5,5.6,5.6v1.1
		C134.9,202.5,132.4,205.1,129.3,205.1z"/>
	<path class="st1" d="M192,205.1h-38.7c-3.1,0-5.6-2.5-5.6-5.6v-1.1c0-3.1,2.5-5.6,5.6-5.6H192c3.1,0,5.6,2.5,5.6,5.6v1.1
		C197.6,202.5,195.1,205.1,192,205.1z"/>
	<path class="st1" d="M254.6,205.1h-38.7c-3.1,0-5.6-2.5-5.6-5.6v-1.1c0-3.1,2.5-5.6,5.6-5.6h38.7c3.1,0,5.6,2.5,5.6,5.6v1.1
		C260.3,202.5,257.8,205.1,254.6,205.1z"/>
	<path class="st2" d="M624.9,134.1h-58.7c-3.1,0-5.6-2.5-5.6-5.6v-1.1c0-3.1,2.5-5.6,5.6-5.6h58.7c3.1,0,5.6,2.5,5.6,5.6v1.1
		C630.5,131.6,628,134.1,624.9,134.1z"/>
	<circle class="st1" cx="27.5" cy="127.9" r="23"/>
</g>
</svg>
