<?xml version="1.0" encoding="utf-8"?>
<!-- Generator: Adobe Illustrator 25.4.1, SVG Export Plug-In . SVG Version: 6.00 Build 0)  -->
<svg version="1.1" id="Layer_1" xmlns="http://www.w3.org/2000/svg" xmlns:xlink="http://www.w3.org/1999/xlink" x="0px" y="0px"
	 viewBox="0 0 635 330" style="enable-background:new 0 0 635 330;" xml:space="preserve">
<style type="text/css">
	.st0{opacity:0.1;fill:#FFFFFF;}
	.st1{opacity:0.2;fill:#FFFFFF;}
	.st2{opacity:0.42;fill:#FFFFFF;}
</style>
<g>
	<path class="st0" d="M176.5,253.3h-157c-9.4,0-17-7.6-17-17V48.8c0-9.4,7.6-17,17-17h157c9.4,0,17,7.6,17,17v187.5
		C193.5,245.6,185.9,253.3,176.5,253.3z"/>
	<path class="st0" d="M396.4,253.4h-157c-9.4,0-17-7.6-17-17V48.9c0-9.4,7.6-17,17-17h157c9.4,0,17,7.6,17,17v187.5
		C413.4,245.8,405.8,253.4,396.4,253.4z"/>
	<path class="st0" d="M615.5,254h-157c-9.4,0-17-7.6-17-17V49.5c0-9.4,7.6-17,17-17h157c9.4,0,17,7.6,17,17V237
		C632.5,246.4,624.9,254,615.5,254z"/>
	<path class="st1" d="M158.9,86.7H37.2c-3.1,0-5.6-2.5-5.6-5.6v-1.1c0-3.1,2.5-5.6,5.6-5.6h121.7c3.1,0,5.6,2.5,5.6,5.6v1.1
		C164.5,84.2,162,86.7,158.9,86.7z"/>
	<path class="st1" d="M158.3,112.7H37.2c-3.1,0-5.6-2.5-5.6-5.6v-1.1c0-3.1,2.5-5.6,5.6-5.6h121.1c3.1,0,5.6,2.5,5.6,5.6v1.1
		C163.9,110.2,161.4,112.7,158.3,112.7z"/>
	<path class="st1" d="M127.2,138.7h-90c-3.1,0-5.6-2.5-5.6-5.6v-1.1c0-3.1,2.5-5.6,5.6-5.6h90c3.1,0,5.6,2.5,5.6,5.6v1.1
		C132.8,136.2,130.3,138.7,127.2,138.7z"/>
	<circle class="st2" cx="54.5" cy="187.8" r="23"/>
	<path class="st2" d="M129.8,181h-35c-3.1,0-5.6-2.5-5.6-5.6v-1.1c0-3.1,2.5-5.6,5.6-5.6h35c3.1,0,5.6,2.5,5.6,5.6v1.1
		C135.5,178.5,132.9,181,129.8,181z"/>
	<path class="st1" d="M145.8,206.9h-51c-3.1,0-5.6-2.5-5.6-5.6v-1.1c0-3.1,2.5-5.6,5.6-5.6h51c3.1,0,5.6,2.5,5.6,5.6v1.1
		C151.5,204.4,148.9,206.9,145.8,206.9z"/>
	<path class="st1" d="M378.8,86.9H257.1c-3.1,0-5.6-2.5-5.6-5.6v-1.1c0-3.1,2.5-5.6,5.6-5.6h121.7c3.1,0,5.6,2.5,5.6,5.6v1.1
		C384.5,84.4,381.9,86.9,378.8,86.9z"/>
	<path class="st1" d="M378.2,112.9H257.1c-3.1,0-5.6-2.5-5.6-5.6v-1.1c0-3.1,2.5-5.6,5.6-5.6h121.1c3.1,0,5.6,2.5,5.6,5.6v1.1
		C383.8,110.4,381.3,112.9,378.2,112.9z"/>
	<path class="st1" d="M347.1,138.9h-90c-3.1,0-5.6-2.5-5.6-5.6v-1.1c0-3.1,2.5-5.6,5.6-5.6h90c3.1,0,5.6,2.5,5.6,5.6v1.1
		C352.8,136.4,350.2,138.9,347.1,138.9z"/>
	<circle class="st2" cx="274.4" cy="187.9" r="23"/>
	<path class="st2" d="M349.8,181.2h-35c-3.1,0-5.6-2.5-5.6-5.6v-1.1c0-3.1,2.5-5.6,5.6-5.6h35c3.1,0,5.6,2.5,5.6,5.6v1.1
		C355.4,178.7,352.9,181.2,349.8,181.2z"/>
	<path class="st1" d="M365.8,207.1h-51c-3.1,0-5.6-2.5-5.6-5.6v-1.1c0-3.1,2.5-5.6,5.6-5.6h51c3.1,0,5.6,2.5,5.6,5.6v1.1
		C371.4,204.6,368.9,207.1,365.8,207.1z"/>
	<path class="st1" d="M597.9,87.4H476.2c-3.1,0-5.6-2.5-5.6-5.6v-1.1c0-3.1,2.5-5.6,5.6-5.6h121.7c3.1,0,5.6,2.5,5.6,5.6v1.1
		C603.5,84.9,601,87.4,597.9,87.4z"/>
	<path class="st1" d="M597.3,113.4H476.2c-3.1,0-5.6-2.5-5.6-5.6v-1.1c0-3.1,2.5-5.6,5.6-5.6h121.1c3.1,0,5.6,2.5,5.6,5.6v1.1
		C602.9,110.9,600.4,113.4,597.3,113.4z"/>
	<path class="st1" d="M566.2,139.4h-90c-3.1,0-5.6-2.5-5.6-5.6v-1.1c0-3.1,2.5-5.6,5.6-5.6h90c3.1,0,5.6,2.5,5.6,5.6v1.1
		C571.8,136.9,569.3,139.4,566.2,139.4z"/>
	<circle class="st2" cx="493.5" cy="188.5" r="23"/>
	<path class="st2" d="M568.8,181.7h-35c-3.1,0-5.6-2.5-5.6-5.6V175c0-3.1,2.5-5.6,5.6-5.6h35c3.1,0,5.6,2.5,5.6,5.6v1.1
		C574.5,179.2,571.9,181.7,568.8,181.7z"/>
	<path class="st1" d="M584.8,207.6h-51c-3.1,0-5.6-2.5-5.6-5.6v-1.1c0-3.1,2.5-5.6,5.6-5.6h51c3.1,0,5.6,2.5,5.6,5.6v1.1
		C590.5,205.1,587.9,207.6,584.8,207.6z"/>
	<circle class="st1" cx="297.5" cy="291.2" r="7"/>
	<circle class="st1" cx="317.7" cy="291.2" r="7"/>
	<circle class="st1" cx="338" cy="291.2" r="7"/>
</g>
</svg>
