<?xml version="1.0" encoding="utf-8"?>
<!-- Generator: Adobe Illustrator 25.4.1, SVG Export Plug-In . SVG Version: 6.00 Build 0)  -->
<svg version="1.1" id="Layer_1" xmlns="http://www.w3.org/2000/svg" xmlns:xlink="http://www.w3.org/1999/xlink" x="0px" y="0px"
	 viewBox="0 0 635 330" style="enable-background:new 0 0 635 330;" xml:space="preserve">
<style type="text/css">
	.st0{opacity:0.42;fill:#FFFFFF;}
	.st1{opacity:0.2;fill:#FFFFFF;}
</style>
<g>
	<circle class="st0" cx="26.5" cy="87.4" r="23"/>
	<path class="st0" d="M132.6,81.7H68.9c-3.1,0-5.6-2.5-5.6-5.6v-1.1c0-3.1,2.5-5.6,5.6-5.6h63.7c3.1,0,5.6,2.5,5.6,5.6V76
		C138.2,79.2,135.7,81.7,132.6,81.7z"/>
	<path class="st1" d="M179.9,115.6h-111c-3.1,0-5.6-2.5-5.6-5.6v-1.1c0-3.1,2.5-5.6,5.6-5.6h111c3.1,0,5.6,2.5,5.6,5.6v1.1
		C185.5,113.1,183,115.6,179.9,115.6z"/>
	<path class="st1" d="M155.6,141.6H68.9c-3.1,0-5.6-2.5-5.6-5.6v-1.1c0-3.1,2.5-5.6,5.6-5.6h86.7c3.1,0,5.6,2.5,5.6,5.6v1.1
		C161.2,139.1,158.7,141.6,155.6,141.6z"/>
	<circle class="st0" cx="249.5" cy="89.4" r="23"/>
	<path class="st0" d="M355.6,83.7h-63.7c-3.1,0-5.6-2.5-5.6-5.6v-1.1c0-3.1,2.5-5.6,5.6-5.6h63.7c3.1,0,5.6,2.5,5.6,5.6V78
		C361.2,81.2,358.7,83.7,355.6,83.7z"/>
	<path class="st1" d="M402.9,117.6h-111c-3.1,0-5.6-2.5-5.6-5.6v-1.1c0-3.1,2.5-5.6,5.6-5.6h111c3.1,0,5.6,2.5,5.6,5.6v1.1
		C408.5,115.1,406,117.6,402.9,117.6z"/>
	<path class="st1" d="M378.6,143.6h-86.7c-3.1,0-5.6-2.5-5.6-5.6v-1.1c0-3.1,2.5-5.6,5.6-5.6h86.7c3.1,0,5.6,2.5,5.6,5.6v1.1
		C384.2,141.1,381.7,143.6,378.6,143.6z"/>
	<circle class="st0" cx="472.5" cy="88.4" r="23"/>
	<path class="st0" d="M578.6,82.7h-63.7c-3.1,0-5.6-2.5-5.6-5.6v-1.1c0-3.1,2.5-5.6,5.6-5.6h63.7c3.1,0,5.6,2.5,5.6,5.6V77
		C584.2,80.2,581.7,82.7,578.6,82.7z"/>
	<path class="st1" d="M625.9,116.6h-111c-3.1,0-5.6-2.5-5.6-5.6v-1.1c0-3.1,2.5-5.6,5.6-5.6h111c3.1,0,5.6,2.5,5.6,5.6v1.1
		C631.5,114.1,629,116.6,625.9,116.6z"/>
	<path class="st1" d="M601.6,142.6h-86.7c-3.1,0-5.6-2.5-5.6-5.6v-1.1c0-3.1,2.5-5.6,5.6-5.6h86.7c3.1,0,5.6,2.5,5.6,5.6v1.1
		C607.2,140.1,604.7,142.6,601.6,142.6z"/>
	<circle class="st0" cx="26.5" cy="209.4" r="23"/>
	<path class="st0" d="M132.6,203.7H68.9c-3.1,0-5.6-2.5-5.6-5.6v-1.1c0-3.1,2.5-5.6,5.6-5.6h63.7c3.1,0,5.6,2.5,5.6,5.6v1.1
		C138.2,201.2,135.7,203.7,132.6,203.7z"/>
	<path class="st1" d="M179.9,237.6h-111c-3.1,0-5.6-2.5-5.6-5.6v-1.1c0-3.1,2.5-5.6,5.6-5.6h111c3.1,0,5.6,2.5,5.6,5.6v1.1
		C185.5,235.1,183,237.6,179.9,237.6z"/>
	<path class="st1" d="M155.6,263.6H68.9c-3.1,0-5.6-2.5-5.6-5.6v-1.1c0-3.1,2.5-5.6,5.6-5.6h86.7c3.1,0,5.6,2.5,5.6,5.6v1.1
		C161.2,261.1,158.7,263.6,155.6,263.6z"/>
	<circle class="st0" cx="249.5" cy="211.4" r="23"/>
	<path class="st0" d="M355.6,205.7h-63.7c-3.1,0-5.6-2.5-5.6-5.6v-1.1c0-3.1,2.5-5.6,5.6-5.6h63.7c3.1,0,5.6,2.5,5.6,5.6v1.1
		C361.2,203.2,358.7,205.7,355.6,205.7z"/>
	<path class="st1" d="M402.9,239.6h-111c-3.1,0-5.6-2.5-5.6-5.6v-1.1c0-3.1,2.5-5.6,5.6-5.6h111c3.1,0,5.6,2.5,5.6,5.6v1.1
		C408.5,237.1,406,239.6,402.9,239.6z"/>
	<path class="st1" d="M378.6,265.6h-86.7c-3.1,0-5.6-2.5-5.6-5.6v-1.1c0-3.1,2.5-5.6,5.6-5.6h86.7c3.1,0,5.6,2.5,5.6,5.6v1.1
		C384.2,263.1,381.7,265.6,378.6,265.6z"/>
	<circle class="st0" cx="472.5" cy="210.4" r="23"/>
	<path class="st0" d="M578.6,204.7h-63.7c-3.1,0-5.6-2.5-5.6-5.6v-1.1c0-3.1,2.5-5.6,5.6-5.6h63.7c3.1,0,5.6,2.5,5.6,5.6v1.1
		C584.2,202.2,581.7,204.7,578.6,204.7z"/>
	<path class="st1" d="M625.9,238.6h-111c-3.1,0-5.6-2.5-5.6-5.6v-1.1c0-3.1,2.5-5.6,5.6-5.6h111c3.1,0,5.6,2.5,5.6,5.6v1.1
		C631.5,236.1,629,238.6,625.9,238.6z"/>
	<path class="st1" d="M601.6,264.6h-86.7c-3.1,0-5.6-2.5-5.6-5.6v-1.1c0-3.1,2.5-5.6,5.6-5.6h86.7c3.1,0,5.6,2.5,5.6,5.6v1.1
		C607.2,262.1,604.7,264.6,601.6,264.6z"/>
</g>
</svg>
