<?xml version="1.0" encoding="utf-8"?>
<!-- Generator: Adobe Illustrator 25.4.1, SVG Export Plug-In . SVG Version: 6.00 Build 0)  -->
<svg version="1.1" id="Layer_1" xmlns="http://www.w3.org/2000/svg" xmlns:xlink="http://www.w3.org/1999/xlink" x="0px" y="0px"
	 viewBox="0 0 635 330" style="enable-background:new 0 0 635 330;" xml:space="preserve">
<style type="text/css">
	.st0{opacity:0.2;fill:#FFFFFF;}
	.st1{opacity:0.42;fill:#FFFFFF;}
</style>
<g>
	<path class="st0" d="M134.6,303.3H12.5c-5.5,0-10-4.5-10-10v-73.5c0-5.5,4.5-10,10-10h122.1c5.5,0,10,4.5,10,10v73.5
		C144.6,298.8,140.1,303.3,134.6,303.3z"/>
	<path class="st1" d="M50.7,273.7h45.6c1.6,0,2.9-1.3,2.9-2.8c0-0.8-0.3-1.5-0.8-2l-11.4-11.4c-1.1-1.1-2.9-1.1-4,0l-3.7,3.7
		l-9.4-9.4c-1.1-1.1-2.9-1.1-4,0l-17.1,17.1c-1.1,1.1-1.1,2.9,0,4C49.3,273.4,50,273.7,50.7,273.7z"/>
	<circle class="st1" cx="87.8" cy="245.2" r="5.7"/>
	<path class="st0" d="M297.2,303.3H175.1c-5.5,0-10-4.5-10-10v-73.5c0-5.5,4.5-10,10-10h122.1c5.5,0,10,4.5,10,10v73.5
		C307.2,298.8,302.7,303.3,297.2,303.3z"/>
	<path class="st1" d="M213.3,273.7H259c1.6,0,2.9-1.3,2.9-2.8c0-0.8-0.3-1.5-0.8-2l-11.4-11.4c-1.1-1.1-2.9-1.1-4,0l-3.7,3.7
		l-9.4-9.4c-1.1-1.1-2.9-1.1-4,0l-17.1,17.1c-1.1,1.1-1.1,2.9,0,4C211.9,273.4,212.6,273.7,213.3,273.7z"/>
	<circle class="st1" cx="250.4" cy="245.2" r="5.7"/>
	<path class="st0" d="M459.9,303.3H337.8c-5.5,0-10-4.5-10-10v-73.5c0-5.5,4.5-10,10-10h122.1c5.5,0,10,4.5,10,10v73.5
		C469.9,298.8,465.4,303.3,459.9,303.3z"/>
	<path class="st1" d="M376,273.7h45.6c1.6,0,2.9-1.3,2.9-2.8c0-0.8-0.3-1.5-0.8-2l-11.4-11.4c-1.1-1.1-2.9-1.1-4,0l-3.7,3.7
		l-9.4-9.4c-1.1-1.1-2.9-1.1-4,0L374,268.8c-1.1,1.1-1.1,2.9,0,4C374.6,273.4,375.3,273.7,376,273.7z"/>
	<circle class="st1" cx="413" cy="245.2" r="5.7"/>
	<path class="st0" d="M622.5,303.3H500.4c-5.5,0-10-4.5-10-10v-73.5c0-5.5,4.5-10,10-10h122.1c5.5,0,10,4.5,10,10v73.5
		C632.5,298.8,628,303.3,622.5,303.3z"/>
	<path class="st1" d="M538.6,273.7h45.6c1.6,0,2.9-1.3,2.9-2.8c0-0.8-0.3-1.5-0.8-2l-11.4-11.4c-1.1-1.1-2.9-1.1-4,0l-3.7,3.7
		l-9.4-9.4c-1.1-1.1-2.9-1.1-4,0l-17.1,17.1c-1.1,1.1-1.1,2.9,0,4C537.2,273.4,537.9,273.7,538.6,273.7z"/>
	<circle class="st1" cx="575.7" cy="245.2" r="5.7"/>
	<path class="st0" d="M134.6,189.3H12.5c-5.5,0-10-4.5-10-10v-73.5c0-5.5,4.5-10,10-10h122.1c5.5,0,10,4.5,10,10v73.5
		C144.6,184.8,140.1,189.3,134.6,189.3z"/>
	<path class="st1" d="M50.7,159.7h45.6c1.6,0,2.9-1.3,2.9-2.8c0-0.8-0.3-1.5-0.8-2l-11.4-11.4c-1.1-1.1-2.9-1.1-4,0l-3.7,3.7
		l-9.4-9.4c-1.1-1.1-2.9-1.1-4,0l-17.1,17.1c-1.1,1.1-1.1,2.9,0,4C49.3,159.4,50,159.7,50.7,159.7z"/>
	<circle class="st1" cx="87.8" cy="131.2" r="5.7"/>
	<path class="st0" d="M297.2,189.3H175.1c-5.5,0-10-4.5-10-10v-73.5c0-5.5,4.5-10,10-10h122.1c5.5,0,10,4.5,10,10v73.5
		C307.2,184.8,302.7,189.3,297.2,189.3z"/>
	<path class="st1" d="M213.3,159.7H259c1.6,0,2.9-1.3,2.9-2.8c0-0.8-0.3-1.5-0.8-2l-11.4-11.4c-1.1-1.1-2.9-1.1-4,0l-3.7,3.7
		l-9.4-9.4c-1.1-1.1-2.9-1.1-4,0l-17.1,17.1c-1.1,1.1-1.1,2.9,0,4C211.9,159.4,212.6,159.7,213.3,159.7z"/>
	<circle class="st1" cx="250.4" cy="131.2" r="5.7"/>
	<path class="st0" d="M459.9,189.3H337.8c-5.5,0-10-4.5-10-10v-73.5c0-5.5,4.5-10,10-10h122.1c5.5,0,10,4.5,10,10v73.5
		C469.9,184.8,465.4,189.3,459.9,189.3z"/>
	<path class="st1" d="M376,159.7h45.6c1.6,0,2.9-1.3,2.9-2.8c0-0.8-0.3-1.5-0.8-2l-11.4-11.4c-1.1-1.1-2.9-1.1-4,0l-3.7,3.7
		l-9.4-9.4c-1.1-1.1-2.9-1.1-4,0L374,154.8c-1.1,1.1-1.1,2.9,0,4C374.6,159.4,375.3,159.7,376,159.7z"/>
	<circle class="st1" cx="413" cy="131.2" r="5.7"/>
	<path class="st0" d="M622.5,189.3H500.4c-5.5,0-10-4.5-10-10v-73.5c0-5.5,4.5-10,10-10h122.1c5.5,0,10,4.5,10,10v73.5
		C632.5,184.8,628,189.3,622.5,189.3z"/>
	<path class="st1" d="M538.6,159.7h45.6c1.6,0,2.9-1.3,2.9-2.8c0-0.8-0.3-1.5-0.8-2l-11.4-11.4c-1.1-1.1-2.9-1.1-4,0l-3.7,3.7
		l-9.4-9.4c-1.1-1.1-2.9-1.1-4,0l-17.1,17.1c-1.1,1.1-1.1,2.9,0,4C537.2,159.4,537.9,159.7,538.6,159.7z"/>
	<circle class="st1" cx="575.7" cy="131.2" r="5.7"/>
	<path class="st1" d="M301.3,39.1H8.6c-3.1,0-5.6-2.5-5.6-5.6v-1.1c0-3.1,2.5-5.6,5.6-5.6h292.7c3.1,0,5.6,2.5,5.6,5.6v1.1
		C307,36.6,304.5,39.1,301.3,39.1z"/>
	<path class="st1" d="M230.1,62H8.6C5.5,62,3,59.5,3,56.4v-1.1c0-3.1,2.5-5.6,5.6-5.6h221.4c3.1,0,5.6,2.5,5.6,5.6v1.1
		C235.7,59.5,233.2,62,230.1,62z"/>
	<path class="st0" d="M626.3,39.1H333.6c-3.1,0-5.6-2.5-5.6-5.6v-1.1c0-3.1,2.5-5.6,5.6-5.6h292.7c3.1,0,5.6,2.5,5.6,5.6v1.1
		C632,36.6,629.5,39.1,626.3,39.1z"/>
	<path class="st0" d="M555.1,62H333.6c-3.1,0-5.6-2.5-5.6-5.6v-1.1c0-3.1,2.5-5.6,5.6-5.6h221.4c3.1,0,5.6,2.5,5.6,5.6v1.1
		C560.7,59.5,558.2,62,555.1,62z"/>
</g>
</svg>
