<?xml version="1.0" encoding="utf-8"?>
<!-- Generator: Adobe Illustrator 25.4.1, SVG Export Plug-In . SVG Version: 6.00 Build 0)  -->
<svg version="1.1" id="Layer_1" xmlns="http://www.w3.org/2000/svg" xmlns:xlink="http://www.w3.org/1999/xlink" x="0px" y="0px"
	 viewBox="0 0 635 330" style="enable-background:new 0 0 635 330;" xml:space="preserve">
<style type="text/css">
	.st0{opacity:0.42;fill:#FFFFFF;}
	.st1{opacity:0.2;fill:#FFFFFF;}
</style>
<g>
	<path class="st0" d="M463.9,126.5H171.1c-3.1,0-5.6-2.5-5.6-5.6v-1.1c0-3.1,2.5-5.6,5.6-5.6h292.7c3.1,0,5.6,2.5,5.6,5.6v1.1
		C469.5,124,467,126.5,463.9,126.5z"/>
	<path class="st0" d="M428.2,149.4H206.8c-3.1,0-5.6-2.5-5.6-5.6v-1.1c0-3.1,2.5-5.6,5.6-5.6h221.4c3.1,0,5.6,2.5,5.6,5.6v1.1
		C433.9,146.9,431.3,149.4,428.2,149.4z"/>
	<path class="st1" d="M514.9,186.6H120.1c-3.1,0-5.6-2.5-5.6-5.6v-1.1c0-3.1,2.5-5.6,5.6-5.6h394.8c3.1,0,5.6,2.5,5.6,5.6v1.1
		C520.5,184,518,186.6,514.9,186.6z"/>
	<path class="st1" d="M501.9,212.5H133.1c-3.1,0-5.6-2.5-5.6-5.6v-1.1c0-3.1,2.5-5.6,5.6-5.6h368.8c3.1,0,5.6,2.5,5.6,5.6v1.1
		C507.5,209.9,505,212.5,501.9,212.5z"/>
	<path class="st1" d="M490.9,238.4H144.1c-3.1,0-5.6-2.5-5.6-5.6v-1.1c0-3.1,2.5-5.6,5.6-5.6h346.8c3.1,0,5.6,2.5,5.6,5.6v1.1
		C496.5,235.8,494,238.4,490.9,238.4z"/>
	<circle class="st0" cx="317.5" cy="57.2" r="23"/>
	<path class="st0" d="M352.5,295.8h-70c-8.3,0-15-6.7-15-15v0c0-8.3,6.7-15,15-15h70c8.3,0,15,6.7,15,15v0
		C367.5,289,360.8,295.8,352.5,295.8z"/>
</g>
</svg>
