<?xml version="1.0" encoding="utf-8"?>
<!-- Generator: Adobe Illustrator 25.4.1, SVG Export Plug-In . SVG Version: 6.00 Build 0)  -->
<svg version="1.1" id="Layer_1" xmlns="http://www.w3.org/2000/svg" xmlns:xlink="http://www.w3.org/1999/xlink" x="0px" y="0px"
	 viewBox="0 0 635 330" style="enable-background:new 0 0 635 330;" xml:space="preserve">
<style type="text/css">
	.st0{opacity:0.2;fill:#FFFFFF;}
	.st1{opacity:0.42;fill:#FFFFFF;}
</style>
<g>
	<path class="st0" d="M332.5,171.9h-106c-1.1,0-2-0.9-2-2l0,0c0-1.1,0.9-2,2-2h106c1.1,0,2,0.9,2,2l0,0
		C334.5,171,333.6,171.9,332.5,171.9z"/>
	<path class="st0" d="M502.4,169.9h-106c-1.1,0-2-0.9-2-2l0,0c0-1.1,0.9-2,2-2h106c1.1,0,2,0.9,2,2l0,0
		C504.4,169,503.5,169.9,502.4,169.9z"/>
	<path class="st0" d="M162.6,171.9h-106c-1.1,0-2-0.9-2-2l0,0c0-1.1,0.9-2,2-2h106c1.1,0,2,0.9,2,2l0,0
		C164.6,171,163.7,171.9,162.6,171.9z"/>
	<circle class="st1" cx="24.6" cy="169.5" r="23"/>
	<circle class="st1" cx="194.5" cy="169.5" r="23"/>
	<circle class="st1" cx="364.5" cy="169.5" r="23"/>
	<path class="st1" d="M534.4,192.5c-12.7,0-23-10.3-23-23s10.3-23,23-23c12.7,0,23,10.3,23,23S547.1,192.5,534.4,192.5"/>
	<path class="st1" d="M580.7,227.8H517c-3.1,0-5.6-2.5-5.6-5.6V221c0-3.1,2.5-5.6,5.6-5.6h63.7c3.1,0,5.6,2.5,5.6,5.6v1.1
		C586.4,225.3,583.8,227.8,580.7,227.8z"/>
	<path class="st0" d="M628,261.7H517c-3.1,0-5.6-2.5-5.6-5.6v-1.1c0-3.1,2.5-5.6,5.6-5.6h111c3.1,0,5.6,2.5,5.6,5.6v1.1
		C633.6,259.2,631.1,261.7,628,261.7z"/>
	<path class="st0" d="M603.7,287.7H517c-3.1,0-5.6-2.5-5.6-5.6v-1.1c0-3.1,2.5-5.6,5.6-5.6h86.7c3.1,0,5.6,2.5,5.6,5.6v1.1
		C609.4,285.2,606.8,287.7,603.7,287.7z"/>
	<path class="st1" d="M410.7,227.8H347c-3.1,0-5.6-2.5-5.6-5.6V221c0-3.1,2.5-5.6,5.6-5.6h63.7c3.1,0,5.6,2.5,5.6,5.6v1.1
		C416.4,225.3,413.8,227.8,410.7,227.8z"/>
	<path class="st0" d="M458,261.7H347c-3.1,0-5.6-2.5-5.6-5.6v-1.1c0-3.1,2.5-5.6,5.6-5.6h111c3.1,0,5.6,2.5,5.6,5.6v1.1
		C463.6,259.2,461.1,261.7,458,261.7z"/>
	<path class="st0" d="M433.7,287.7H347c-3.1,0-5.6-2.5-5.6-5.6v-1.1c0-3.1,2.5-5.6,5.6-5.6h86.7c3.1,0,5.6,2.5,5.6,5.6v1.1
		C439.4,285.2,436.8,287.7,433.7,287.7z"/>
	<path class="st1" d="M240.7,227.8H177c-3.1,0-5.6-2.5-5.6-5.6V221c0-3.1,2.5-5.6,5.6-5.6h63.7c3.1,0,5.6,2.5,5.6,5.6v1.1
		C246.4,225.3,243.8,227.8,240.7,227.8z"/>
	<path class="st0" d="M288,261.7H177c-3.1,0-5.6-2.5-5.6-5.6v-1.1c0-3.1,2.5-5.6,5.6-5.6h111c3.1,0,5.6,2.5,5.6,5.6v1.1
		C293.6,259.2,291.1,261.7,288,261.7z"/>
	<path class="st0" d="M263.7,287.7H177c-3.1,0-5.6-2.5-5.6-5.6v-1.1c0-3.1,2.5-5.6,5.6-5.6h86.7c3.1,0,5.6,2.5,5.6,5.6v1.1
		C269.4,285.2,266.8,287.7,263.7,287.7z"/>
	<path class="st1" d="M70.7,227.8H7c-3.1,0-5.6-2.5-5.6-5.6V221c0-3.1,2.5-5.6,5.6-5.6h63.7c3.1,0,5.6,2.5,5.6,5.6v1.1
		C76.4,225.3,73.8,227.8,70.7,227.8z"/>
	<path class="st0" d="M118,261.7H7c-3.1,0-5.6-2.5-5.6-5.6l0-1.1c0-3.1,2.5-5.6,5.6-5.6h111c3.1,0,5.6,2.5,5.6,5.6v1.1
		C123.6,259.2,121.1,261.7,118,261.7z"/>
	<path class="st0" d="M93.7,287.7H7c-3.1,0-5.6-2.5-5.6-5.6l0-1.1c0-3.1,2.5-5.6,5.6-5.6h86.7c3.1,0,5.6,2.5,5.6,5.6v1.1
		C99.4,285.2,96.8,287.7,93.7,287.7z"/>
	<path class="st1" d="M192.2,54.7H7.3c-3.1,0-5.6-2.5-5.6-5.6V48c0-3.1,2.5-5.6,5.6-5.6h184.9c3.1,0,5.6,2.5,5.6,5.6v1.1
		C197.9,52.2,195.3,54.7,192.2,54.7z"/>
	<path class="st0" d="M281,90.3H7.3c-3.1,0-5.6-2.5-5.6-5.6v-1.1c0-3.1,2.5-5.6,5.6-5.6H281c3.1,0,5.6,2.5,5.6,5.6v1.1
		C286.6,87.8,284.1,90.3,281,90.3z"/>
</g>
</svg>
