<?xml version="1.0" encoding="utf-8"?>
<!-- Generator: Adobe Illustrator 25.4.1, SVG Export Plug-In . SVG Version: 6.00 Build 0)  -->
<svg version="1.1" id="Layer_1" xmlns="http://www.w3.org/2000/svg" xmlns:xlink="http://www.w3.org/1999/xlink" x="0px" y="0px"
	 viewBox="0 0 635 330" style="enable-background:new 0 0 635 330;" xml:space="preserve">
<style type="text/css">
	.st0{opacity:0.42;fill:#FFFFFF;}
	.st1{opacity:0.2;fill:#FFFFFF;}
</style>
<g>
	<path class="st0" d="M193.1,44H8.1c-3.1,0-5.6-2.5-5.6-5.6v-1.1c0-3.1,2.5-5.6,5.6-5.6h184.9c3.1,0,5.6,2.5,5.6,5.6v1.1
		C198.7,41.5,196.2,44,193.1,44z"/>
	<path class="st1" d="M281.9,84.6H8.1c-3.1,0-5.6-2.5-5.6-5.6v-1.1c0-3.1,2.5-5.6,5.6-5.6h273.7c3.1,0,5.6,2.5,5.6,5.6V79
		C287.5,82.1,285,84.6,281.9,84.6z"/>
	<path class="st1" d="M281.9,110.5H8.1c-3.1,0-5.6-2.5-5.6-5.6v-1.1c0-3.1,2.5-5.6,5.6-5.6h273.7c3.1,0,5.6,2.5,5.6,5.6v1.1
		C287.5,108,285,110.5,281.9,110.5z"/>
	<path class="st1" d="M227.5,136.4H8.1c-3.1,0-5.6-2.5-5.6-5.6v-1.1c0-3.1,2.5-5.6,5.6-5.6h219.4c3.1,0,5.6,2.5,5.6,5.6v1.1
		C233.1,133.9,230.6,136.4,227.5,136.4z"/>
	<path class="st0" d="M538.1,44H353.1c-3.1,0-5.6-2.5-5.6-5.6v-1.1c0-3.1,2.5-5.6,5.6-5.6h184.9c3.1,0,5.6,2.5,5.6,5.6v1.1
		C543.7,41.5,541.2,44,538.1,44z"/>
	<path class="st1" d="M626.9,84.6H353.1c-3.1,0-5.6-2.5-5.6-5.6v-1.1c0-3.1,2.5-5.6,5.6-5.6h273.7c3.1,0,5.6,2.5,5.6,5.6V79
		C632.5,82.1,630,84.6,626.9,84.6z"/>
	<path class="st1" d="M626.9,110.5H353.1c-3.1,0-5.6-2.5-5.6-5.6v-1.1c0-3.1,2.5-5.6,5.6-5.6h273.7c3.1,0,5.6,2.5,5.6,5.6v1.1
		C632.5,108,630,110.5,626.9,110.5z"/>
	<path class="st1" d="M572.5,136.4H353.1c-3.1,0-5.6-2.5-5.6-5.6v-1.1c0-3.1,2.5-5.6,5.6-5.6h219.4c3.1,0,5.6,2.5,5.6,5.6v1.1
		C578.1,133.9,575.6,136.4,572.5,136.4z"/>
	<path class="st0" d="M193.1,206H8.1c-3.1,0-5.6-2.5-5.6-5.6v-1.1c0-3.1,2.5-5.6,5.6-5.6h184.9c3.1,0,5.6,2.5,5.6,5.6v1.1
		C198.7,203.5,196.2,206,193.1,206z"/>
	<path class="st1" d="M281.9,246.6H8.1c-3.1,0-5.6-2.5-5.6-5.6v-1.1c0-3.1,2.5-5.6,5.6-5.6h273.7c3.1,0,5.6,2.5,5.6,5.6v1.1
		C287.5,244.1,285,246.6,281.9,246.6z"/>
	<path class="st1" d="M281.9,272.5H8.1c-3.1,0-5.6-2.5-5.6-5.6v-1.1c0-3.1,2.5-5.6,5.6-5.6h273.7c3.1,0,5.6,2.5,5.6,5.6v1.1
		C287.5,270,285,272.5,281.9,272.5z"/>
	<path class="st1" d="M227.5,298.4H8.1c-3.1,0-5.6-2.5-5.6-5.6v-1.1c0-3.1,2.5-5.6,5.6-5.6h219.4c3.1,0,5.6,2.5,5.6,5.6v1.1
		C233.1,295.9,230.6,298.4,227.5,298.4z"/>
	<path class="st0" d="M538.1,206H353.1c-3.1,0-5.6-2.5-5.6-5.6v-1.1c0-3.1,2.5-5.6,5.6-5.6h184.9c3.1,0,5.6,2.5,5.6,5.6v1.1
		C543.7,203.5,541.2,206,538.1,206z"/>
	<path class="st1" d="M626.9,246.6H353.1c-3.1,0-5.6-2.5-5.6-5.6v-1.1c0-3.1,2.5-5.6,5.6-5.6h273.7c3.1,0,5.6,2.5,5.6,5.6v1.1
		C632.5,244.1,630,246.6,626.9,246.6z"/>
	<path class="st1" d="M626.9,272.5H353.1c-3.1,0-5.6-2.5-5.6-5.6v-1.1c0-3.1,2.5-5.6,5.6-5.6h273.7c3.1,0,5.6,2.5,5.6,5.6v1.1
		C632.5,270,630,272.5,626.9,272.5z"/>
	<path class="st1" d="M572.5,298.4H353.1c-3.1,0-5.6-2.5-5.6-5.6v-1.1c0-3.1,2.5-5.6,5.6-5.6h219.4c3.1,0,5.6,2.5,5.6,5.6v1.1
		C578.1,295.9,575.6,298.4,572.5,298.4z"/>
</g>
</svg>
