<?xml version="1.0" encoding="utf-8"?>
<!-- Generator: Adobe Illustrator 25.4.1, SVG Export Plug-In . SVG Version: 6.00 Build 0)  -->
<svg version="1.1" id="Layer_1" xmlns="http://www.w3.org/2000/svg" xmlns:xlink="http://www.w3.org/1999/xlink" x="0px" y="0px"
	 viewBox="0 0 635 330" style="enable-background:new 0 0 635 330;" xml:space="preserve">
<style type="text/css">
	.st0{opacity:0.2;fill:#FFFFFF;}
	.st1{opacity:0.42;fill:#FFFFFF;}
</style>
<g>
	<path class="st0" d="M177.5,132.8h-160c-8.3,0-15-6.7-15-15V31.2c0-8.3,6.7-15,15-15h160c8.3,0,15,6.7,15,15v86.6
		C192.5,126.1,185.8,132.8,177.5,132.8z"/>
	<path class="st1" d="M67,94.2h60.9c2.1,0,3.8-1.7,3.8-3.9c0-1.1-0.4-2.1-1.1-2.8l-15.2-15.8c-1.5-1.5-3.9-1.5-5.4,0l-4.9,5.1
		l-12.5-13c-1.5-1.5-3.9-1.5-5.4,0L64.4,87.5c-1.5,1.6-1.4,4.1,0.1,5.6C65.1,93.8,66,94.2,67,94.2z"/>
	<ellipse class="st1" cx="116.5" cy="54.7" rx="7.6" ry="7.9"/>
	<path class="st0" d="M397.5,159.8h-160c-8.3,0-15-6.7-15-15V31.2c0-8.3,6.7-15,15-15h160c8.3,0,15,6.7,15,15v113.6
		C412.5,153.1,405.8,159.8,397.5,159.8z"/>
	<path class="st1" d="M287,111.7h60.9c2.1,0,3.8-1.7,3.8-3.9c0-1.1-0.4-2.1-1.1-2.8l-15.2-15.8c-1.5-1.5-3.9-1.5-5.4,0l-4.9,5.1
		l-12.5-13c-1.5-1.5-3.9-1.5-5.4,0L284.4,105c-1.5,1.6-1.4,4.1,0.1,5.6C285.1,111.3,286,111.7,287,111.7z"/>
	<ellipse class="st1" cx="336.5" cy="72.2" rx="7.6" ry="7.9"/>
	<path class="st0" d="M617.5,116.7h-160c-8.3,0-15-6.7-15-15V31.2c0-8.3,6.7-15,15-15h160c8.3,0,15,6.7,15,15v70.5
		C632.5,110,625.8,116.7,617.5,116.7z"/>
	<path class="st1" d="M507,90.2h60.9c2.1,0,3.8-1.7,3.8-3.9c0-1.1-0.4-2.1-1.1-2.8l-15.2-15.8c-1.5-1.5-3.9-1.5-5.4,0l-4.9,5.1
		l-12.5-13c-1.5-1.5-3.9-1.5-5.4,0l-22.8,23.7c-1.5,1.6-1.4,4.1,0.1,5.6C505.1,89.8,506,90.2,507,90.2z"/>
	<ellipse class="st1" cx="556.5" cy="50.6" rx="7.6" ry="7.9"/>
	<path class="st0" d="M177.5,299.8h-160c-8.3,0-15-6.7-15-15V177.2c0-8.3,6.7-15,15-15h160c8.3,0,15,6.7,15,15v107.6
		C192.5,293.1,185.8,299.8,177.5,299.8z"/>
	<path class="st1" d="M67,254.7h60.9c2.1,0,3.8-1.7,3.8-3.9c0-1.1-0.4-2.1-1.1-2.8l-15.2-15.8c-1.5-1.5-3.9-1.5-5.4,0l-4.9,5.1
		l-12.5-13c-1.5-1.5-3.9-1.5-5.4,0L64.4,248c-1.5,1.6-1.4,4.1,0.1,5.6C65.1,254.3,66,254.7,67,254.7z"/>
	<ellipse class="st1" cx="116.5" cy="215.2" rx="7.6" ry="7.9"/>
	<path class="st0" d="M397.5,313.8h-160c-8.3,0-15-6.7-15-15v-94.6c0-8.3,6.7-15,15-15h160c8.3,0,15,6.7,15,15v94.6
		C412.5,307.1,405.8,313.8,397.5,313.8z"/>
	<path class="st1" d="M287,275.2h60.9c2.1,0,3.8-1.7,3.8-3.9c0-1.1-0.4-2.1-1.1-2.8l-15.2-15.8c-1.5-1.5-3.9-1.5-5.4,0l-4.9,5.1
		l-12.5-13c-1.5-1.5-3.9-1.5-5.4,0l-22.8,23.7c-1.5,1.6-1.4,4.1,0.1,5.6C285.1,274.8,286,275.2,287,275.2z"/>
	<ellipse class="st1" cx="336.5" cy="235.7" rx="7.6" ry="7.9"/>
	<path class="st0" d="M617.5,285.8h-160c-8.3,0-15-6.7-15-15V161.2c0-8.3,6.7-15,15-15h160c8.3,0,15,6.7,15,15v109.6
		C632.5,279.1,625.8,285.8,617.5,285.8z"/>
	<path class="st1" d="M507,239.7h60.9c2.1,0,3.8-1.7,3.8-3.9c0-1.1-0.4-2.1-1.1-2.8l-15.2-15.8c-1.5-1.5-3.9-1.5-5.4,0l-4.9,5.1
		l-12.5-13c-1.5-1.5-3.9-1.5-5.4,0L504.4,233c-1.5,1.6-1.4,4.1,0.1,5.6C505.1,239.3,506,239.7,507,239.7z"/>
	<ellipse class="st1" cx="556.5" cy="200.2" rx="7.6" ry="7.9"/>
</g>
</svg>
