<?xml version="1.0" encoding="utf-8"?>
<!-- Generator: Adobe Illustrator 25.4.1, SVG Export Plug-In . SVG Version: 6.00 Build 0)  -->
<svg version="1.1" id="Layer_1" xmlns="http://www.w3.org/2000/svg" xmlns:xlink="http://www.w3.org/1999/xlink" x="0px" y="0px"
	 viewBox="0 0 635 330" style="enable-background:new 0 0 635 330;" xml:space="preserve">
<style type="text/css">
	.st0{opacity:0.2;fill:#FFFFFF;}
	.st1{opacity:0.42;fill:#FFFFFF;}
</style>
<g>
	<path class="st0" d="M134.6,158.6H12.5c-5.5,0-10-4.5-10-10V75.1c0-5.5,4.5-10,10-10h122.1c5.5,0,10,4.5,10,10v73.5
		C144.6,154.1,140.1,158.6,134.6,158.6z"/>
	<path class="st1" d="M50.7,129h45.6c1.6,0,2.9-1.3,2.9-2.8c0-0.8-0.3-1.5-0.8-2l-11.4-11.4c-1.1-1.1-2.9-1.1-4,0l-3.7,3.7l-9.4-9.4
		c-1.1-1.1-2.9-1.1-4,0l-17.1,17.1c-1.1,1.1-1.1,2.9,0,4C49.3,128.7,50,128.9,50.7,129z"/>
	<circle class="st1" cx="87.8" cy="100.5" r="5.7"/>
	<path class="st0" d="M297.2,158.6H175.1c-5.5,0-10-4.5-10-10V75.1c0-5.5,4.5-10,10-10h122.1c5.5,0,10,4.5,10,10v73.5
		C307.2,154.1,302.7,158.6,297.2,158.6z"/>
	<path class="st1" d="M213.3,129H259c1.6,0,2.9-1.3,2.9-2.8c0-0.8-0.3-1.5-0.8-2l-11.4-11.4c-1.1-1.1-2.9-1.1-4,0l-3.7,3.7l-9.4-9.4
		c-1.1-1.1-2.9-1.1-4,0l-17.1,17.1c-1.1,1.1-1.1,2.9,0,4C211.9,128.7,212.6,128.9,213.3,129z"/>
	<circle class="st1" cx="250.4" cy="100.5" r="5.7"/>
	<path class="st0" d="M459.9,158.6H337.8c-5.5,0-10-4.5-10-10V75.1c0-5.5,4.5-10,10-10h122.1c5.5,0,10,4.5,10,10v73.5
		C469.9,154.1,465.4,158.6,459.9,158.6z"/>
	<path class="st1" d="M376,129h45.6c1.6,0,2.9-1.3,2.9-2.8c0-0.8-0.3-1.5-0.8-2l-11.4-11.4c-1.1-1.1-2.9-1.1-4,0l-3.7,3.7l-9.4-9.4
		c-1.1-1.1-2.9-1.1-4,0L374,124.1c-1.1,1.1-1.1,2.9,0,4C374.6,128.7,375.3,128.9,376,129z"/>
	<circle class="st1" cx="413" cy="100.5" r="5.7"/>
	<path class="st0" d="M622.5,158.6H500.4c-5.5,0-10-4.5-10-10V75.1c0-5.5,4.5-10,10-10h122.1c5.5,0,10,4.5,10,10v73.5
		C632.5,154.1,628,158.6,622.5,158.6z"/>
	<path class="st1" d="M538.6,129h45.6c1.6,0,2.9-1.3,2.9-2.8c0-0.8-0.3-1.5-0.8-2l-11.4-11.4c-1.1-1.1-2.9-1.1-4,0l-3.7,3.7
		l-9.4-9.4c-1.1-1.1-2.9-1.1-4,0l-17.1,17.1c-1.1,1.1-1.1,2.9,0,4C537.2,128.7,537.9,128.9,538.6,129z"/>
	<circle class="st1" cx="575.7" cy="100.5" r="5.7"/>
	<path class="st1" d="M73.9,201.5H10.1c-3.1,0-5.6-2.5-5.6-5.6v-1.1c0-3.1,2.5-5.6,5.6-5.6h63.7c3.1,0,5.6,2.5,5.6,5.6v1.1
		C79.5,199,77,201.5,73.9,201.5z"/>
	<path class="st0" d="M121.1,233.4h-111c-3.1,0-5.6-2.5-5.6-5.6v-1.1c0-3.1,2.5-5.6,5.6-5.6h111c3.1,0,5.6,2.5,5.6,5.6v1.1
		C126.8,230.9,124.2,233.4,121.1,233.4z"/>
	<path class="st1" d="M236.9,201.5h-63.7c-3.1,0-5.6-2.5-5.6-5.6v-1.1c0-3.1,2.5-5.6,5.6-5.6h63.7c3.1,0,5.6,2.5,5.6,5.6v1.1
		C242.5,199,240,201.5,236.9,201.5z"/>
	<path class="st0" d="M284.1,233.4h-111c-3.1,0-5.6-2.5-5.6-5.6v-1.1c0-3.1,2.5-5.6,5.6-5.6h111c3.1,0,5.6,2.5,5.6,5.6v1.1
		C289.8,230.9,287.2,233.4,284.1,233.4z"/>
	<path class="st1" d="M399.2,201.5h-63.7c-3.1,0-5.6-2.5-5.6-5.6v-1.1c0-3.1,2.5-5.6,5.6-5.6h63.7c3.1,0,5.6,2.5,5.6,5.6v1.1
		C404.8,199,402.3,201.5,399.2,201.5z"/>
	<path class="st0" d="M446.4,233.4h-111c-3.1,0-5.6-2.5-5.6-5.6v-1.1c0-3.1,2.5-5.6,5.6-5.6h111c3.1,0,5.6,2.5,5.6,5.6v1.1
		C452,230.9,449.5,233.4,446.4,233.4z"/>
	<path class="st1" d="M562.2,197.5h-63.7c-3.1,0-5.6-2.5-5.6-5.6v-1.1c0-3.1,2.5-5.6,5.6-5.6h63.7c3.1,0,5.6,2.5,5.6,5.6v1.1
		C567.8,195,565.3,197.5,562.2,197.5z"/>
	<path class="st0" d="M609.4,229.4h-111c-3.1,0-5.6-2.5-5.6-5.6v-1.1c0-3.1,2.5-5.6,5.6-5.6h111c3.1,0,5.6,2.5,5.6,5.6v1.1
		C615,226.9,612.5,229.4,609.4,229.4z"/>
	<circle class="st1" cx="11.8" cy="258.7" r="6.2"/>
	<circle class="st1" cx="31.4" cy="258.7" r="6.2"/>
	<circle class="st1" cx="173.8" cy="258.7" r="6.2"/>
	<circle class="st1" cx="193.4" cy="258.7" r="6.2"/>
	<circle class="st1" cx="335.8" cy="258.7" r="6.2"/>
	<circle class="st1" cx="355.4" cy="258.7" r="6.2"/>
	<circle class="st1" cx="498.8" cy="258.7" r="6.2"/>
	<circle class="st1" cx="518.4" cy="258.7" r="6.2"/>
</g>
</svg>
