<?xml version="1.0" encoding="utf-8"?>
<!-- Generator: Adobe Illustrator 25.4.1, SVG Export Plug-In . SVG Version: 6.00 Build 0)  -->
<svg version="1.1" id="Layer_1" xmlns="http://www.w3.org/2000/svg" xmlns:xlink="http://www.w3.org/1999/xlink" x="0px" y="0px"
	 viewBox="0 0 635 330" style="enable-background:new 0 0 635 330;" xml:space="preserve">
<style type="text/css">
	.st0{opacity:0.2;fill:#FFFFFF;}
	.st1{opacity:0.42;fill:#FFFFFF;}
</style>
<g>
	<path class="st0" d="M178,142.9H17.5c-8.3,0-15-6.7-15-15V32.5c0-8.3,6.7-15,15-15H178c8.3,0,15,6.7,15,15v95.4
		C193,136.2,186.3,142.9,178,142.9z"/>
	<path class="st0" d="M397.8,142.9H237.2c-8.3,0-15-6.7-15-15V32.5c0-8.3,6.7-15,15-15h160.5c8.3,0,15,6.7,15,15v95.4
		C412.8,136.2,406.1,142.9,397.8,142.9z"/>
	<path class="st0" d="M617.5,142.9H457c-8.3,0-15-6.7-15-15V32.5c0-8.3,6.7-15,15-15h160.5c8.3,0,15,6.7,15,15v95.4
		C632.5,136.2,625.8,142.9,617.5,142.9z"/>
	<path class="st1" d="M67.2,103.2h61.2c2.1,0,3.8-1.7,3.8-3.8c0-1-0.4-2-1.1-2.7l-15.3-15.3c-1.5-1.5-3.9-1.5-5.4,0l-5,5L92.8,73.7
		c-1.5-1.5-3.9-1.5-5.4,0L64.5,96.7c-1.5,1.5-1.5,3.9,0.1,5.4C65.2,102.8,66.2,103.1,67.2,103.2z"/>
	<circle class="st1" cx="116.9" cy="64.9" r="7.6"/>
	<path class="st1" d="M286.9,103.2H348c2.1,0,3.8-1.7,3.8-3.8c0-1-0.4-2-1.1-2.7l-15.3-15.3c-1.5-1.5-3.9-1.5-5.4,0l-5,5l-12.6-12.6
		c-1.5-1.5-3.9-1.5-5.4,0l-22.9,22.9c-1.5,1.5-1.5,3.9,0.1,5.4C285,102.8,285.9,103.1,286.9,103.2z"/>
	<circle class="st1" cx="336.6" cy="64.9" r="7.6"/>
	<path class="st1" d="M506.6,103.2h61.2c2.1,0,3.8-1.7,3.8-3.8c0-1-0.4-2-1.1-2.7l-15.3-15.3c-1.5-1.5-3.9-1.5-5.4,0l-5,5
		l-12.6-12.6c-1.5-1.5-3.9-1.5-5.4,0l-22.9,22.9c-1.5,1.5-1.5,3.9,0.1,5.4C504.7,102.8,505.6,103.1,506.6,103.2z"/>
	<circle class="st1" cx="556.3" cy="64.9" r="7.6"/>
	<circle class="st0" cx="297.2" cy="305.5" r="7"/>
	<circle class="st0" cx="317.5" cy="305.5" r="7"/>
	<circle class="st0" cx="337.8" cy="305.5" r="7"/>
	<path class="st1" d="M141.9,186.2H8.1c-3.1,0-5.6-2.5-5.6-5.6V179c0-3.1,2.5-5.6,5.6-5.6h133.7c3.1,0,5.6,2.5,5.6,5.6v1.5
		C147.5,183.6,145,186.2,141.9,186.2z"/>
	<path class="st0" d="M187.4,219.4H8.1c-3.1,0-5.6-2.5-5.6-5.6v-1.2c0-3.1,2.5-5.6,5.6-5.6h179.3c3.1,0,5.6,2.5,5.6,5.6v1.2
		C193,216.9,190.5,219.4,187.4,219.4z"/>
	<path class="st0" d="M187.4,245.4H8.1c-3.1,0-5.6-2.5-5.6-5.6v-1.2c0-3.1,2.5-5.6,5.6-5.6h179.3c3.1,0,5.6,2.5,5.6,5.6v1.2
		C193,242.9,190.5,245.4,187.4,245.4z"/>
	<path class="st0" d="M106.9,271.4H8.1c-3.1,0-5.6-2.5-5.6-5.6v-1.2c0-3.1,2.5-5.6,5.6-5.6h98.7c3.1,0,5.6,2.5,5.6,5.6v1.2
		C112.5,268.9,110,271.4,106.9,271.4z"/>
	<path class="st1" d="M361.6,186.2H227.9c-3.1,0-5.6-2.5-5.6-5.6V179c0-3.1,2.5-5.6,5.6-5.6h133.7c3.1,0,5.6,2.5,5.6,5.6v1.5
		C367.2,183.6,364.7,186.2,361.6,186.2z"/>
	<path class="st0" d="M407.1,219.4H227.9c-3.1,0-5.6-2.5-5.6-5.6v-1.2c0-3.1,2.5-5.6,5.6-5.6h179.3c3.1,0,5.6,2.5,5.6,5.6v1.2
		C412.8,216.9,410.2,219.4,407.1,219.4z"/>
	<path class="st0" d="M407.1,245.4H227.9c-3.1,0-5.6-2.5-5.6-5.6v-1.2c0-3.1,2.5-5.6,5.6-5.6h179.3c3.1,0,5.6,2.5,5.6,5.6v1.2
		C412.8,242.9,410.2,245.4,407.1,245.4z"/>
	<path class="st0" d="M326.6,271.4h-98.7c-3.1,0-5.6-2.5-5.6-5.6v-1.2c0-3.1,2.5-5.6,5.6-5.6h98.7c3.1,0,5.6,2.5,5.6,5.6v1.2
		C332.2,268.9,329.7,271.4,326.6,271.4z"/>
	<path class="st1" d="M581.3,186.2H447.6c-3.1,0-5.6-2.5-5.6-5.6V179c0-3.1,2.5-5.6,5.6-5.6h133.7c3.1,0,5.6,2.5,5.6,5.6v1.5
		C587,183.6,584.4,186.2,581.3,186.2z"/>
	<path class="st0" d="M626.9,219.4H447.6c-3.1,0-5.6-2.5-5.6-5.6v-1.2c0-3.1,2.5-5.6,5.6-5.6h179.3c3.1,0,5.6,2.5,5.6,5.6v1.2
		C632.5,216.9,630,219.4,626.9,219.4z"/>
	<path class="st0" d="M626.9,245.4H447.6c-3.1,0-5.6-2.5-5.6-5.6v-1.2c0-3.1,2.5-5.6,5.6-5.6h179.3c3.1,0,5.6,2.5,5.6,5.6v1.2
		C632.5,242.9,630,245.4,626.9,245.4z"/>
	<path class="st0" d="M546.3,271.4h-98.7c-3.1,0-5.6-2.5-5.6-5.6v-1.2c0-3.1,2.5-5.6,5.6-5.6h98.7c3.1,0,5.6,2.5,5.6,5.6v1.2
		C552,268.9,549.4,271.4,546.3,271.4z"/>
</g>
</svg>
