<?xml version="1.0" encoding="utf-8"?>
<!-- Generator: Adobe Illustrator 25.4.1, SVG Export Plug-In . SVG Version: 6.00 Build 0)  -->
<svg version="1.1" id="Layer_1" xmlns="http://www.w3.org/2000/svg" xmlns:xlink="http://www.w3.org/1999/xlink" x="0px" y="0px"
	 viewBox="0 0 635 330" style="enable-background:new 0 0 635 330;" xml:space="preserve">
<style type="text/css">
	.st0{opacity:0.1;fill:#FFFFFF;}
	.st1{opacity:0.42;fill:#FFFFFF;}
	.st2{opacity:0.2;fill:#FFFFFF;}
</style>
<g>
	<path class="st0" d="M615.6,99H19.4c-9.3,0-16.9-7.6-16.9-16.9V45.9c0-9.3,7.6-16.9,16.9-16.9h596.2c9.3,0,16.9,7.6,16.9,16.9v36.2
		C632.5,91.4,624.9,99,615.6,99z"/>
	<circle class="st1" cx="601.3" cy="64" r="6.2"/>
	<g>
		<circle class="st1" cx="219" cy="64" r="6.2"/>
		<path class="st2" d="M297,70.2h-58.7c-3.1,0-5.6-2.5-5.6-5.6v-1.1c0-3.1,2.5-5.6,5.6-5.6H297c3.1,0,5.6,2.5,5.6,5.6v1.1
			C302.7,67.7,300.1,70.2,297,70.2z"/>
	</g>
	<g>
		<circle class="st1" cx="391.2" cy="64" r="6.2"/>
		<path class="st2" d="M468.5,70.2h-58.7c-3.1,0-5.6-2.5-5.6-5.6v-1.1c0-3.1,2.5-5.6,5.6-5.6h58.7c3.1,0,5.6,2.5,5.6,5.6v1.1
			C474.1,67.7,471.6,70.2,468.5,70.2z"/>
	</g>
	<g>
		<path class="st2" d="M138.3,70.2H79.6c-3.1,0-5.6-2.5-5.6-5.6v-1.1c0-3.1,2.5-5.6,5.6-5.6h58.7c3.1,0,5.6,2.5,5.6,5.6v1.1
			C143.9,67.7,141.4,70.2,138.3,70.2z"/>
		<circle class="st1" cx="45.9" cy="64" r="18"/>
	</g>
	<path class="st0" d="M615.6,200H19.4c-9.3,0-16.9-7.6-16.9-16.9v-36.2c0-9.3,7.6-16.9,16.9-16.9h596.2c9.3,0,16.9,7.6,16.9,16.9
		v36.2C632.5,192.4,624.9,200,615.6,200z"/>
	<circle class="st1" cx="601.3" cy="165" r="6.2"/>
	<g>
		<circle class="st1" cx="219" cy="165" r="6.2"/>
		<path class="st2" d="M297,171.2h-58.7c-3.1,0-5.6-2.5-5.6-5.6v-1.1c0-3.1,2.5-5.6,5.6-5.6H297c3.1,0,5.6,2.5,5.6,5.6v1.1
			C302.7,168.7,300.1,171.2,297,171.2z"/>
	</g>
	<g>
		<circle class="st1" cx="391.2" cy="165" r="6.2"/>
		<path class="st2" d="M468.5,171.2h-58.7c-3.1,0-5.6-2.5-5.6-5.6v-1.1c0-3.1,2.5-5.6,5.6-5.6h58.7c3.1,0,5.6,2.5,5.6,5.6v1.1
			C474.1,168.7,471.6,171.2,468.5,171.2z"/>
	</g>
	<g>
		<path class="st2" d="M138.3,171.2H79.6c-3.1,0-5.6-2.5-5.6-5.6v-1.1c0-3.1,2.5-5.6,5.6-5.6h58.7c3.1,0,5.6,2.5,5.6,5.6v1.1
			C143.9,168.7,141.4,171.2,138.3,171.2z"/>
		<circle class="st1" cx="45.9" cy="165" r="18"/>
	</g>
	<path class="st0" d="M615.6,301H19.4c-9.3,0-16.9-7.6-16.9-16.9v-36.2c0-9.3,7.6-16.9,16.9-16.9h596.2c9.3,0,16.9,7.6,16.9,16.9
		v36.2C632.5,293.4,624.9,301,615.6,301z"/>
	<circle class="st1" cx="601.3" cy="266" r="6.2"/>
	<g>
		<circle class="st1" cx="219" cy="266" r="6.2"/>
		<path class="st2" d="M297,272.2h-58.7c-3.1,0-5.6-2.5-5.6-5.6v-1.1c0-3.1,2.5-5.6,5.6-5.6H297c3.1,0,5.6,2.5,5.6,5.6v1.1
			C302.7,269.7,300.1,272.2,297,272.2z"/>
	</g>
	<g>
		<circle class="st1" cx="391.2" cy="266" r="6.2"/>
		<path class="st2" d="M468.5,272.2h-58.7c-3.1,0-5.6-2.5-5.6-5.6v-1.1c0-3.1,2.5-5.6,5.6-5.6h58.7c3.1,0,5.6,2.5,5.6,5.6v1.1
			C474.1,269.7,471.6,272.2,468.5,272.2z"/>
	</g>
	<g>
		<path class="st2" d="M138.3,272.2H79.6c-3.1,0-5.6-2.5-5.6-5.6v-1.1c0-3.1,2.5-5.6,5.6-5.6h58.7c3.1,0,5.6,2.5,5.6,5.6v1.1
			C143.9,269.7,141.4,272.2,138.3,272.2z"/>
		<circle class="st1" cx="45.9" cy="266" r="18"/>
	</g>
</g>
</svg>
