<?xml version="1.0" encoding="utf-8"?>
<!-- Generator: Adobe Illustrator 25.4.1, SVG Export Plug-In . SVG Version: 6.00 Build 0)  -->
<svg version="1.1" id="Layer_1" xmlns="http://www.w3.org/2000/svg" xmlns:xlink="http://www.w3.org/1999/xlink" x="0px" y="0px"
	 viewBox="0 0 635 330" style="enable-background:new 0 0 635 330;" xml:space="preserve">
<style type="text/css">
	.st0{opacity:0.2;fill:#FFFFFF;}
	.st1{opacity:0.42;fill:#FFFFFF;}
</style>
<g>
	<path class="st0" d="M618.5,298.3H369.4c-8.3,0-15-6.7-15-15V46.7c0-8.3,6.7-15,15-15h249.1c8.3,0,15,6.7,15,15v236.7
		C633.5,291.6,626.8,298.3,618.5,298.3z"/>
	<path class="st1" d="M421.9,221.1h143.9c5,0,9-4.1,9-9.3c0-2.5-0.9-4.9-2.7-6.7l-36-37.4c-3.5-3.6-9.2-3.6-12.7,0l-11.7,12.2
		l-29.6-30.7c-3.5-3.6-9.2-3.6-12.7,0l-54,56.1c-3.5,3.7-3.4,9.6,0.1,13.2C417.4,220.1,419.6,221,421.9,221.1z"/>
	<ellipse class="st1" cx="538.8" cy="127.6" rx="18" ry="18.7"/>
	<path class="st1" d="M265.9,102.4H7.1c-3.1,0-5.6-2.5-5.6-5.6v-1.1C1.5,92.5,4,90,7.1,90h258.7c3.1,0,5.6,2.5,5.6,5.6v1.1
		C271.5,99.9,269,102.4,265.9,102.4z"/>
	<path class="st1" d="M265.9,76.4H7.1c-3.1,0-5.6-2.5-5.6-5.6v-1.1C1.5,66.5,4,64,7.1,64h258.7c3.1,0,5.6,2.5,5.6,5.6v1.1
		C271.5,73.9,269,76.4,265.9,76.4z"/>
	<path class="st1" d="M181.8,128.3H7.1c-3.1,0-5.6-2.5-5.6-5.6v-1.1c0-3.1,2.5-5.6,5.6-5.6h174.6c3.1,0,5.6,2.5,5.6,5.6v1.1
		C187.4,125.8,184.9,128.3,181.8,128.3z"/>
	<path class="st0" d="M265.9,175.8H7.1c-3.1,0-5.6-2.5-5.6-5.6V169c0-3.1,2.5-5.6,5.6-5.6h258.7c3.1,0,5.6,2.5,5.6,5.6v1.1
		C271.5,173.3,269,175.8,265.9,175.8z"/>
	<path class="st0" d="M214.4,201.1H7.1c-3.1,0-5.6-2.5-5.6-5.6v0c0-3.1,2.5-5.6,5.6-5.6h207.3c3.1,0,5.6,2.5,5.6,5.6v0
		C220,198.6,217.5,201.1,214.4,201.1z"/>
	<path class="st1" d="M86.5,266h-70c-8.3,0-15-6.7-15-15v0c0-8.3,6.7-15,15-15h70c8.3,0,15,6.7,15,15v0
		C101.5,259.3,94.8,266,86.5,266z"/>
	<path class="st1" d="M194.5,266.3h-70c-8.3,0-15-6.7-15-15v0c0-8.3,6.7-15,15-15h70c8.3,0,15,6.7,15,15v0
		C209.5,259.6,202.8,266.3,194.5,266.3z"/>
</g>
</svg>
